#!OML:ASF I:\Actors\actors\Patient Classification 1\Patient 1\Session 1\Subject1.ASF
:FULLY-SPECIFIED
:DEGREES
326
root 0.357483 17.6339 8.26297 10.8928 21.3592 -8.01532
lowerback 6.80617 6.67408 1.27597
upperback -10.6749 9.02013 -3.30031
thorax -14.8689 3.91262 -6.10794
lowerneck -13.8931 -12.6378 -8.76262
upperneck 11.1447 -17.7691 14.535
head 7.85247 -7.78014 3.94852
rclavicle 8.99501e-015 6.04305e-014
rhumerus 49.38 -13.8922 -81.0169
rradius 41.9902
rwrist 54.0421
rhand -24.4523 -54.0361
rfingers 7.12502
rthumb 2.04053 -84.0061
lclavicle 8.99501e-015 6.04305e-014
lhumerus -36.8362 -11.3419 86.923
lradius 56.541
lwrist 3.81568
lhand -20.7544 -20.5519
lfingers 7.12502
lthumb 5.61146 9.35383
rfemur 2.15532 30.1543 24.9696
rtibia -2.51939
rfoot -37.0918 -46.0777
rtoes 26.4417
lfemur -8.03111 -42.3574 -6.62188
ltibia -3.52094
lfoot -1.99891 33.9364
ltoes -10.4053
327
root 0.360755 17.6413 8.27008 10.8506 21.4896 -8.29372
lowerback 6.64107 6.63784 1.44673
upperback -10.7084 9.01192 -3.16657
thorax -14.8007 3.90556 -6.02738
lowerneck -13.9653 -12.6479 -8.65548
upperneck 11.3305 -17.7947 14.3595
head 7.89994 -7.7907 3.86723
rclavicle 4.29872e-014 2.22639e-014
rhumerus 48.9827 -12.4591 -78.6709
rradius 41.8399
rwrist 53.6383
rhand -25.5416 -53.4165
rfingers 7.12502
rthumb 0.988516 -83.3939
lclavicle 4.29872e-014 2.22639e-014
lhumerus -36.8643 -11.1631 87.1073
lradius 56.7985
lwrist 4.70295
lhand -21.2516 -20.3167
lfingers 7.12502
lthumb 5.1314 9.60118
rfemur 2.03232 29.8083 25.189
rtibia -2.48526
rfoot -36.8394 -45.9215
rtoes 26.2657
lfemur -8.16435 -42.4665 -6.22378
ltibia -3.49089
lfoot -2.11206 34.0216
ltoes -10.1871
328
root 0.36175 17.6375 8.27263 10.8717 21.748 -8.56976
lowerback 6.39802 6.51665 1.57953
upperback -10.7672 8.89158 -2.95445
thorax -14.7441 3.85543 -5.81378
lowerneck -13.8893 -12.6121 -8.64816
upperneck 11.5237 -17.7507 14.208
head 7.92767 -7.77835 3.82716
rclavicle -1.83876e-015 -7.95139e-015
rhumerus 48.7974 -11.0124 -76.924
rradius 41.5631
rwrist 53.1908
rhand -25.7494 -52.9416
rfingers 7.12502
rthumb 0.787766 -82.9198
lclavicle -1.83876e-015 -7.95139e-015
lhumerus -36.9509 -10.8128 87.3122
lradius 57.0971
lwrist 5.64173
lhand -21.5301 -20.234
lfingers 7.12502
lthumb 4.86255 9.69016
rfemur 1.84404 29.5576 25.4004
rtibia -2.44061
rfoot -36.9215 -45.8027
rtoes 26.5242
lfemur -8.50403 -42.2368 -5.71086
ltibia -3.466
lfoot -2.008 33.6781
ltoes -10.4663
329
root 0.36008 17.6279 8.27276 10.8194 21.9313 -8.64504
lowerback 6.28018 6.40853 1.51842
upperback -10.7667 8.75758 -2.76335
thorax -14.7224 3.81493 -5.53138
lowerneck -13.8671 -12.575 -8.71761
upperneck 11.8619 -17.709 14.0647
head 8.02074 -7.76115 3.79579
rclavicle -6.94255e-014 5.725e-014
rhumerus 48.5471 -9.89678 -75.8904
rradius 41.5279
rwrist 52.541
rhand -25.6125 -52.6847
rfingers 7.12502
rthumb 0.920038 -82.6624
lclavicle -6.94255e-014 5.725e-014
lhumerus -36.9986 -10.4512 87.6136
lradius 57.323
lwrist 6.18382
lhand -21.6805 -20.4079
lfingers 7.12502
lthumb 4.71728 9.51962
rfemur 1.86008 29.4185 25.5167
rtibia -2.40176
rfoot -37.0623 -45.7554
rtoes 26.6649
lfemur -8.58308 -41.9334 -5.61022
ltibia -3.43853
lfoot -1.9071 33.223
ltoes -10.8638
330
root 0.355102 17.6186 8.27239 10.6903 22.002 -8.51021
lowerback 6.36086 6.33085 1.33576
upperback -10.7275 8.63111 -2.71193
thorax -14.774 3.77481 -5.36475
lowerneck -13.9285 -12.5927 -8.75768
upperneck 12.2809 -17.7671 13.9784
head 8.17089 -7.77731 3.75669
rclavicle -6.9674e-014 -1.59028e-015
rhumerus 48.1102 -9.27846 -75.7018
rradius 42.0726
rwrist 51.4438
rhand -25.4902 -52.4129
rfingers 7.12502
rthumb 1.03809 -82.3901
lclavicle -6.9674e-014 -1.59028e-015
lhumerus -36.3838 -8.36021 86.4137
lradius 56.7555
lwrist -2.05341
lhand -15.0306 -21.4671
lfingers 7.12502
lthumb 11.1352 8.21745
rfemur 2.0841 29.3635 25.5225
rtibia -2.37915
rfoot -37.1749 -45.7628
rtoes 26.7276
lfemur -8.37053 -41.6542 -5.92248
ltibia -3.4177
lfoot -1.99556 32.7935
ltoes -10.8428
331
root 0.34672 17.61 8.26867 10.6664 22.0686 -8.20247
lowerback 6.49439 6.26131 1.14466
upperback -10.7011 8.49208 -2.84523
thorax -14.8459 3.71479 -5.40326
lowerneck -13.8887 -12.6558 -8.75377
upperneck 12.4763 -17.9033 14.0538
head 8.25286 -7.82834 3.75802
rclavicle -4.37326e-014 3.18055e-014
rhumerus 47.6715 -9.06497 -76.3263
rradius 42.9724
rwrist 50.4916
rhand -25.4677 -52.181
rfingers 7.12502
rthumb 1.05984 -82.1581
lclavicle -4.37326e-014 3.18055e-014
lhumerus -36.7287 -10.4163 87.8948
lradius 57.3689
lwrist 4.99387
lhand -21.6225 -20.7256
lfingers 7.12502
lthumb 4.77329 9.20063
rfemur 2.23663 29.3192 25.3265
rtibia -2.35289
rfoot -37.2189 -45.8669
rtoes 26.6856
lfemur -8.29119 -41.2176 -6.3484
ltibia -3.35313
lfoot -2.02843 32.1815
ltoes -11.0161
